<svg width="96" height="81" viewBox="0 0 96 81" fill="none" xmlns="http://www.w3.org/2000/svg">
<g filter="url(#filter0_d_9_14)">
<path d="M28.5815 0.967773C22.2049 0.967773 16.0895 3.4698 11.5806 7.92344C7.07172 12.3771 4.53864 18.4175 4.53864 24.7159C4.53864 26.8748 4.93206 29.0337 5.50035 31.1927H23.3358L28.8875 16.6415C30.1989 13.1873 35.3572 12.8418 37.0183 16.6415L46.0672 39.8283L48.6464 33.697C49.2146 32.2721 50.7446 31.1927 52.6243 31.1927H91.0055C91.5738 29.0337 91.9672 26.8748 91.9672 24.7159C91.9672 18.4175 89.4341 12.3771 84.9252 7.92344C80.4163 3.4698 74.3009 0.967773 67.9243 0.967773C59.7935 0.967773 52.6243 4.98337 48.2529 11.0715C43.8815 4.98337 36.7123 0.967773 28.5815 0.967773ZM8.91006 37.6694C7.75069 37.6694 6.6388 38.1243 5.819 38.9341C4.99919 39.7438 4.53864 40.8421 4.53864 41.9873C4.53864 43.1324 4.99919 44.2307 5.819 45.0404C6.6388 45.8502 7.75069 46.3051 8.91006 46.3051H19.5763L43.8815 70.0532C48.2529 73.9393 48.2529 73.9393 52.6243 70.0532L76.9295 46.3051H87.5958C88.7551 46.3051 89.867 45.8502 90.6868 45.0404C91.5066 44.2307 91.9672 43.1324 91.9672 41.9873C91.9672 40.8421 91.5066 39.7438 90.6868 38.9341C89.867 38.1243 88.7551 37.6694 87.5958 37.6694H54.3729L50.3075 47.6005C48.5589 51.9615 43.5318 51.357 41.9143 47.73L32.9529 24.7159L28.7563 34.7765C28.1006 36.4172 26.6143 37.6694 24.6472 37.6694H8.91006Z" fill="#EC5863"/>
</g>
<defs>
<filter id="filter0_d_9_14" x="0.538635" y="0.967773" width="95.4286" height="80" filterUnits="userSpaceOnUse" color-interpolation-filters="sRGB">
<feFlood flood-opacity="0" result="BackgroundImageFix"/>
<feColorMatrix in="SourceAlpha" type="matrix" values="0 0 0 0 0 0 0 0 0 0 0 0 0 0 0 0 0 0 127 0" result="hardAlpha"/>
<feOffset dy="4"/>
<feGaussianBlur stdDeviation="2"/>
<feComposite in2="hardAlpha" operator="out"/>
<feColorMatrix type="matrix" values="0 0 0 0 0 0 0 0 0 0 0 0 0 0 0 0 0 0 0.25 0"/>
<feBlend mode="normal" in2="BackgroundImageFix" result="effect1_dropShadow_9_14"/>
<feBlend mode="normal" in="SourceGraphic" in2="effect1_dropShadow_9_14" result="shape"/>
</filter>
</defs>
</svg>
